<?xml version="1.0" encoding="UTF-8" standalone="no"?>
<svg xmlns="http://www.w3.org/2000/svg" xmlns:xlink="http://www.w3.org/1999/xlink" version="1.1" width="133" height="44">
  <defs>
    <radialGradient id="radialGradient1" xlink:href="#linearGradient1" />
    <linearGradient id="linearGradient1">
      <stop style="stop-color:#2e54de;" offset="0" />
      <stop style="stop-color:#4869e2;" offset="1" />
    </linearGradient>
  </defs>
  <g>
    <path d="m 64.374999,2.0050694 c -0.790776,-0.014601 -1.551066,0.00437 -2.3125,0.03125 -1.922334,0.061899 -3.782303,0.2198866 -5.5,0.5 -1.7177,0.2801159 -3.30239,0.6722101 -4.71875,1.125 -1.299075,0.4153037 -2.450483,0.8983272 -3.4375,1.375 -0.987017,0.4766754 -1.813395,0.955896 -2.46875,1.375 -0.655355,0.419104 -1.140086,0.7805908 -1.46875,1.03125 -0.328662,0.2506592 -0.5,0.375 -0.5,0.375 2.375678,-1.7719501 5.11539,-3.0132382 7.96875,-3.8125 3.282726,-0.9195293 6.716666,-1.2812826 10.125,-1.28125 6.393164,-2.508e-4 12.998056,1.332708 18.125,5.15625 2.136493,1.6320515 3.960774,3.7009636 5.125,6.1249996 1.19598,2.490656 1.687563,5.300458 1.6875,8.0625 6e-5,2.746678 -0.493933,5.494006 -1.6875,7.96875 -1.166546,2.418272 -2.991843,4.49552 -5.125,6.125 -2.342313,1.787678 -5.071355,3.073742 -7.90625,3.875 -3.321782,0.938872 -6.76763,1.2813 -10.21875,1.28125 -3.269842,7.8e-5 -6.57277,-0.158722 -9.75,-0.9375 -2.682326,-0.657532 -5.24186,-1.855479 -7.4375,-3.53125 0,0 0.134763,0.139565 0.4375,0.375 0.302737,0.235433 0.766619,0.576617 1.375,0.96875 0.608379,0.392136 1.387118,0.844682 2.3125,1.28125 0.925382,0.43657 1.987431,0.868674 3.21875,1.21875 1.36443,0.387339 2.909036,0.693451 4.5625,0.90625 1.653466,0.212797 3.439397,0.315289 5.28125,0.375 3.307604,0.112351 6.908507,-0.09723 10.5,-1 2.948051,-0.741113 5.859122,-1.985938 8.375,-3.8125 1.186215,-0.862073 2.270675,-1.873745 3.21875,-2.96875 0.217404,-0.251096 0.42281,-0.488671 0.625,-0.75 0.830635,0.976629 1.78307,1.884616 2.875,2.71875 4.481064,3.420194 10.507175,5.124997 18.062501,5.125 7.60738,-3e-6 13.64388,-1.704806 18.125,-5.125 4.53314,-3.46294 6.81245,-8.182399 6.8125,-14.125 -5e-5,-5.985315 -2.27936,-10.693275 -6.8125,-14.1562496 -4.58533,-3.4201585 -10.62183,-5.1249649 -18.125,-5.125 -7.451115,3.51e-5 -13.477226,1.7048415 -18.062501,5.125 -1.0865,0.8299954 -2.016108,1.742931 -2.84375,2.7187496 -0.197826,-0.256549 -0.412296,-0.502988 -0.625,-0.7499996 -0.948567,-1.1015599 -2.054845,-2.0986697 -3.25,-2.96875 -1.39639,-0.9829128 -2.87934,-1.8056719 -4.4375,-2.46875 -1.55816,-0.6630806 -3.178806,-1.1919245 -4.8125,-1.5625 -2.45054,-0.5558633 -4.940172,-0.7999474 -7.3125,-0.84375 z m -19.5,34.8437496 0,-0.03125 c -0.324611,-0.220179 -0.658841,-0.419711 -0.96875,-0.65625 -2.795171,-2.135254 -4.709588,-4.765736 -5.78125,-7.84375 l -10.21875,0 9.34375,-8.5 c 0.503799,-4.942731 2.700385,-8.915552 6.65625,-11.9374996 0.01791,-0.01337 0.04454,-0.049193 0.0625,-0.0625 l 0,-2.875 c -4.8e-5,-0.5828078 -0.258256,-1.0787869 -0.75,-1.4375 -0.43719,-0.4034738 -0.969327,-0.5937124 -1.625,-0.59375 l -36.0624998,0 c -0.6557259,3.76e-5 -1.2269663,0.1902762 -1.71875,0.59375 -0.4371472,0.3587131 -0.6562525,0.8546922 -0.65625,1.4375 l 0,9.1249996 c -2.5e-6,0.538037 0.2191028,1.002764 0.65625,1.40625 0.4917837,0.403537 1.0630241,0.625028 1.71875,0.625 l 12.5312498,0 -16.0624998,15.0625 0,8.34375 c -2.5e-6,0.58285 0.2191003,1.065241 0.65625,1.46875 0.4917837,0.358675 1.0630292,0.53125 1.71875,0.53125 l 38.0312498,0 c 0.655676,0 1.226919,-0.172575 1.71875,-0.53125 0.491741,-0.403509 0.749955,-0.8859 0.75,-1.46875 l 0,-2.65625 z m 17.09375,-22.4375 c -2.605302,2.8e-5 -4.634817,0.69445 -6.09375,2.0625 -1.458976,1.325349 -2.187518,3.168385 -2.1875,5.5625 -1.8e-5,2.394153 0.728524,4.288188 2.1875,5.65625 1.458933,1.325336 3.488448,1.96876 6.09375,1.96875 2.657357,10e-6 4.728514,-0.643414 6.1875,-1.96875 1.458921,-1.368062 2.187462,-3.262097 2.1875,-5.65625 -3.8e-5,-2.394115 -0.728579,-4.237151 -2.1875,-5.5625 -1.458986,-1.36805 -3.530143,-2.062472 -6.1875,-2.0625 z m 43.750001,0 c 2.65736,2.8e-5 4.72851,0.69445 6.1875,2.0625 1.45892,1.325349 2.18746,3.168385 2.1875,5.5625 -4e-5,2.394153 -0.72858,4.288188 -2.1875,5.65625 -1.45899,1.325336 -3.53014,1.96876 -6.1875,1.96875 -2.6053,10e-6 -4.63482,-0.643414 -6.093751,-1.96875 -1.458976,-1.368062 -2.187518,-3.262097 -2.1875,-5.65625 -1.8e-5,-2.394115 0.728524,-4.237151 2.1875,-5.5625 1.458931,-1.36805 3.488451,-2.062472 6.093751,-2.0625 z" style="fill:url(#radialGradient1);" />
  </g>
</svg>
